P2
# CREATOR: convolution program
80 150
255
153
146
148
151
147
149
152
148
151
158
155
156
156
165
178
164
165
166
166
157
100
36
18
13
19
27
22
11
10
11
7
8
11
16
5
1
8
9
9
19
52
120
170
175
179
182
162
137
137
135
122
92
59
55
92
135
153
154
155
175
182
169
168
162
157
157
153
144
138
137
138
138
129
128
127
126
127
127
129
131
159
153
153
153
149
153
155
148
156
159
153
154
153
160
172
158
165
171
174
165
105
41
29
29
14
19
12
6
12
16
12
13
4
15
5
2
10
5
6
33
75
132
176
178
155
122
90
73
74
80
74
51
36
55
103
147
155
156
161
174
172
158
153
153
144
144
145
144
138
132
134
139
129
128
127
127
127
128
130
131
160
157
156
153
149
155
159
151
162
160
152
152
151
156
168
155
165
172
178
173
116
54
43
43
24
22
10
6
16
21
16
15
7
11
3
6
11
3
20
73
129
164
195
186
130
58
28
39
44
49
42
24
23
58
114
156
158
166
175
169
160
155
150
152
135
137
143
146
144
137
139
144
132
131
130
129
128
129
130
130
153
154
156
150
146
157
165
158
163
161
152
155
155
160
172
159
172
177
179
170
110
44
28
24
19
16
5
5
17
22
18
18
13
7
3
7
7
5
49
121
163
172
187
193
159
91
49
51
43
38
26
18
32
76
130
165
155
164
173
156
145
148
146
148
140
143
147
150
150
147
148
151
132
132
131
130
128
127
127
127
148
154
159
151
146
159
171
165
162
160
155
162
163
166
176
162
177
180
180
166
102
33
16
13
10
11
6
7
15
16
12
16
13
4
4
7
5
17
75
143
167
170
177
192
198
167
121
96
60
41
23
24
55
103
142
164
160
161
168
149
140
149
142
146
152
153
151
148
147
148
148
147
129
129
128
127
126
125
124
124
149
158
163
153
146
161
174
169
160
161
157
166
168
169
176
161
173
179
181
170
107
42
29
31
15
19
18
17
16
9
3
8
7
3
6
11
6
27
86
141
170
189
191
186
193
191
167
142
106
77
50
59
98
142
168
177
179
171
174
158
153
160
148
154
160
158
151
141
139
142
144
139
125
124
124
123
122
121
121
120
152
149
163
162
160
169
166
163
163
170
170
158
150
164
173
165
177
175
182
160
102
58
37
21
12
11
12
14
14
9
6
8
10
5
11
13
9
60
132
144
168
185
186
194
197
192
189
167
169
136
111
98
134
167
184
162
164
166
163
164
170
163
150
147
154
151
148
136
127
136
142
134
131
134
132
130
129
122
120
129
159
153
164
163
160
170
165
161
169
169
165
159
160
165
165
159
180
183
180
137
64
23
19
17
13
9
9
14
18
15
9
6
6
3
5
8
24
84
148
166
177
188
187
195
198
193
193
181
179
165
158
146
165
168
174
167
162
158
149
148
156
152
141
138
143
137
134
127
124
135
141
132
131
135
132
130
129
121
119
127
168
159
166
161
161
171
165
160
173
167
161
165
174
167
159
162
176
186
176
119
46
10
7
6
14
8
7
14
22
21
10
3
2
3
2
3
47
111
157
177
188
191
188
197
199
192
198
195
194
200
203
189
185
148
140
151
160
156
145
144
153
152
140
135
134
129
125
123
124
137
143
134
131
134
132
131
132
125
122
130
175
162
166
161
161
172
166
160
171
165
161
171
178
166
160
175
177
180
155
95
41
20
12
1
14
8
8
16
23
19
9
2
2
9
2
9
73
134
153
174
194
192
187
199
200
190
198
202
204
210
213
201
191
134
115
134
153
157
152
151
158
154
142
136
133
127
126
124
123
133
140
133
128
131
132
133
136
131
129
137
176
163
166
160
160
172
167
162
167
164
166
173
171
159
165
184
187
180
135
68
28
24
20
10
12
10
11
17
18
13
5
1
6
12
6
19
97
152
153
179
189
186
183
198
200
189
196
200
204
203
204
200
203
148
121
132
145
154
153
147
150
147
140
138
134
131
131
127
120
124
132
130
129
133
132
134
139
134
130
137
175
163
167
160
157
169
166
162
167
163
171
172
160
158
171
178
186
182
134
65
28
22
19
14
9
10
12
14
12
5
2
3
3
6
7
30
112
162
155
190
179
177
174
192
198
190
195
194
204
198
201
202
210
166
135
129
146
156
149
137
136
138
138
144
138
135
137
132
121
122
130
131
133
135
132
133
137
130
124
129
174
164
168
160
155
164
162
160
170
158
169
171
157
171
185
168
181
175
125
61
31
23
15
12
8
7
8
9
7
2
2
4
1
1
19
55
133
172
155
193
166
167
164
182
195
193
197
192
207
201
206
201
202
170
150
133
152
158
148
133
132
135
136
139
134
129
131
129
120
121
128
128
131
132
129
129
132
124
116
120
174
165
170
160
153
161
158
158
173
155
167
171
160
187
200
163
183
164
100
35
19
21
17
17
7
5
3
5
5
2
2
5
3
6
39
84
159
183
156
190
159
161
158
176
192
196
200
192
205
201
209
198
191
172
167
149
152
157
147
134
133
136
130
128
123
115
116
117
113
116
122
120
125
127
123
124
128
120
112
116
167
165
169
164
152
150
153
149
159
182
190
183
173
187
196
162
160
169
86
19
23
22
17
11
5
6
10
13
9
3
1
3
8
9
55
129
175
181
168
156
171
181
160
193
185
199
183
195
189
203
204
207
176
145
154
150
149
143
140
141
135
124
124
131
124
122
120
119
120
119
117
116
130
122
119
124
124
117
116
121
163
164
170
168
155
152
155
153
167
182
180
176
175
183
193
172
167
152
64
8
13
10
11
19
5
6
10
13
10
3
1
3
8
29
84
146
178
175
163
153
168
177
164
194
187
199
185
197
197
204
201
196
156
121
134
140
150
141
133
128
122
115
119
128
125
124
122
122
124
124
123
122
124
122
127
139
141
134
129
130
163
163
169
170
159
156
158
157
169
179
171
176
185
187
191
187
181
163
81
19
8
4
6
14
4
6
10
14
10
4
2
4
1
43
105
155
175
173
167
164
170
171
169
193
189
199
188
196
195
205
208
197
149
110
117
124
136
128
124
124
122
120
126
135
127
126
127
128
130
131
130
129
125
125
132
143
147
140
134
133
170
164
166
167
160
159
161
159
168
178
169
180
194
184
184
193
184
180
117
40
9
9
7
2
4
6
10
14
11
4
2
5
4
55
113
148
165
171
171
172
178
167
170
186
189
197
190
191
198
209
209
179
131
108
117
124
130
128
133
138
140
138
138
142
133
132
133
134
136
137
135
134
134
131
130
133
133
129
126
126
180
166
163
166
161
161
163
159
170
180
170
181
191
178
180
192
178
155
102
36
7
12
10
2
5
6
10
13
10
5
4
7
24
77
123
145
162
168
164
161
188
160
170
174
187
195
192
188
208
208
190
138
97
106
127
135
142
142
147
150
149
143
137
134
133
132
132
133
134
133
131
128
129
124
119
118
116
114
114
115
183
167
163
166
162
161
163
160
171
178
172
181
190
189
197
199
170
103
50
16
3
9
6
8
7
7
9
11
9
4
5
9
39
95
136
155
172
172
160
157
189
151
171
167
186
194
196
191
207
194
169
115
90
115
131
132
142
142
140
139
137
133
128
125
120
120
119
119
119
117
113
110
105
102
101
101
101
101
101
100
178
166
167
171
163
158
161
162
168
175
175
183
189
196
197
175
128
51
17
7
3
8
6
9
9
8
9
10
7
4
6
12
47
109
151
167
180
176
163
168
180
140
175
166
187
195
205
201
197
167
146
112
104
128
130
128
136
134
131
130
130
129
126
123
111
111
110
110
109
106
102
99
95
94
92
91
91
93
93
91
171
164
171
176
164
156
160
165
169
175
178
185
183
186
175
127
67
16
11
7
1
14
10
7
10
8
7
8
6
4
7
13
58
122
163
173
180
171
162
175
169
132
179
168
189
195
210
211
194
146
121
101
106
130
130
134
140
140
139
138
138
136
130
124
115
115
114
115
114
110
106
103
107
103
96
91
90
92
94
95
173
178
176
174
163
161
168
159
154
166
165
179
183
175
158
106
39
17
2
1
4
4
2
2
5
9
5
3
4
3
8
20
65
133
153
169
175
170
179
153
146
139
154
188
183
184
205
181
150
128
116
126
140
143
144
150
142
144
140
135
136
139
134
122
129
130
126
120
123
130
129
123
122
122
123
122
119
116
113
110
175
178
179
173
158
160
173
174
169
164
155
172
183
181
153
85
37
17
3
2
5
4
3
6
2
6
3
2
6
7
13
29
74
130
151
172
178
167
177
162
161
151
154
172
163
162
175
146
121
117
121
135
144
147
149
153
146
145
139
133
130
131
130
125
128
126
123
122
128
134
134
130
127
127
129
128
124
121
117
114
170
172
175
164
147
152
171
182
176
165
163
176
175
173
149
86
50
32
17
11
8
4
2
4
5
7
3
2
5
7
16
34
78
123
143
168
175
163
176
175
156
152
155
167
161
157
155
123
123
136
152
158
157
153
150
150
143
139
135
130
123
119
122
129
126
119
114
118
123
125
124
123
120
121
120
121
120
118
116
115
168
165
172
160
143
149
163
177
181
166
169
179
174
173
148
88
53
39
25
15
8
2
1
3
6
8
5
5
10
14
27
50
94
130
146
162
167
161
174
179
144
148
162
179
179
166
150
132
148
162
173
166
154
145
139
134
124
121
121
120
113
107
114
127
120
110
105
112
117
115
114
116
109
107
105
102
99
98
97
97
174
165
176
166
153
158
158
169
186
162
163
178
189
186
135
64
39
28
17
9
4
2
3
5
5
6
5
8
16
24
42
70
119
149
158
158
160
162
169
171
155
158
170
182
183
165
149
155
158
164
160
145
133
129
123
116
107
107
112
116
112
106
113
125
118
109
106
111
115
112
112
116
106
101
94
86
80
77
76
76
175
161
177
168
158
164
154
163
174
163
173
185
196
179
108
45
36
26
15
7
3
3
3
3
7
6
3
7
15
22
43
74
122
146
155
152
157
164
166
167
164
166
168
164
170
161
150
177
166
160
145
129
123
124
119
112
113
116
122
127
126
124
126
130
124
119
115
112
107
102
101
101
98
94
89
83
80
79
79
80
170
154
173
164
155
163
152
165
170
174
186
188
196
170
92
47
39
29
17
8
5
5
4
1
9
7
4
8
17
25
49
83
122
134
148
154
165
167
161
166
152
167
167
150
165
169
152
173
168
154
137
130
132
136
132
126
130
133
136
136
138
138
135
130
125
126
122
110
98
93
91
90
92
91
91
91
92
93
92
93
170
151
172
161
152
163
155
172
189
184
180
178
202
181
93
51
32
22
11
4
5
8
7
4
6
6
5
15
28
42
70
109
137
139
152
167
177
168
153
162
137
168
175
151
170
179
147
152
152
138
127
130
140
146
146
143
137
139
138
134
136
138
131
119
117
124
122
109
97
96
98
97
96
98
99
100
99
97
94
93
160
159
170
167
162
164
161
173
189
177
172
188
189
177
106
62
44
29
15
8
6
4
3
4
8
7
6
16
33
49
75
107
122
141
152
158
170
170
151
135
143
155
146
149
175
171
150
150
140
144
150
149
143
140
140
143
137
143
142
133
127
125
116
105
115
110
109
111
108
98
98
103
116
107
99
97
100
100
96
92
163
162
171
166
164
166
162
173
188
172
164
181
186
176
102
52
36
21
6
1
0
0
0
0
4
6
4
9
32
55
79
99
126
142
150
154
164
162
149
140
155
163
152
153
178
176
149
142
143
146
148
148
144
140
140
143
131
138
136
127
120
119
114
106
105
102
105
109
104
97
99
107
104
101
99
96
93
90
87
85
165
163
167
163
165
166
160
177
186
175
172
186
190
181
109
60
50
34
19
11
10
9
9
10
4
8
5
12
41
71
93
107
137
149
155
158
159
150
142
143
160
174
165
159
173
172
154
146
149
147
146
145
143
142
142
142
131
136
133
122
113
113
111
107
100
99
101
102
95
88
90
98
85
89
93
91
85
79
78
79
171
169
169
163
171
169
162
183
171
173
178
190
186
175
106
60
34
19
7
2
1
0
0
1
4
5
7
21
50
77
101
125
152
164
168
162
154
139
137
149
155
177
177
162
159
159
159
164
153
148
144
141
142
141
141
139
130
132
127
116
107
105
105
104
101
100
98
94
83
73
74
81
71
76
82
82
78
75
76
78
181
180
176
168
176
172
162
188
180
183
186
195
190
178
102
47
21
10
2
1
2
2
0
1
6
2
6
25
45
57
87
128
165
171
166
153
140
130
140
162
159
173
171
155
148
154
163
169
153
146
140
137
138
139
137
135
124
124
119
110
104
102
102
102
102
101
98
91
81
72
72
77
69
71
73
74
74
74
76
77
181
184
177
167
174
166
155
187
196
192
187
193
194
185
99
32
25
15
8
9
13
14
13
13
11
7
11
26
33
35
71
127
170
168
150
130
126
132
152
175
167
162
154
148
149
156
159
155
149
144
136
133
133
134
133
132
123
121
118
113
110
108
106
105
96
95
92
88
83
80
81
85
76
72
70
70
73
74
74
72
171
179
173
163
172
162
153
191
184
184
180
185
185
180
101
38
23
11
1
1
0
0
0
1
10
11
16
25
29
34
77
135
165
157
131
115
126
146
161
171
162
147
143
150
155
158
153
143
143
139
134
130
128
128
129
128
126
122
119
118
116
112
104
99
88
86
83
80
80
81
81
82
75
74
71
72
73
74
74
72
165
176
173
166
177
168
160
203
177
189
197
199
191
189
127
78
48
32
18
9
7
5
4
4
1
9
16
21
27
42
91
145
158
149
124
113
136
160
163
158
148
138
143
158
159
152
148
142
138
136
133
128
125
125
125
126
125
120
116
116
114
106
95
85
84
80
75
72
73
75
74
72
71
72
73
75
75
75
75
75
166
168
188
177
181
183
164
196
176
189
208
193
190
188
129
81
48
30
12
5
4
3
1
1
11
6
28
55
43
37
80
135
159
133
119
125
154
178
168
156
144
153
159
165
171
164
152
147
139
145
142
129
117
118
122
125
113
109
107
105
103
97
88
80
75
74
73
71
69
69
71
73
67
65
65
66
71
71
72
70
181
183
197
180
184
187
166
187
180
192
206
191
187
180
119
69
41
25
10
4
4
2
2
3
16
13
37
52
34
40
95
145
146
130
131
147
162
163
153
152
163
165
165
165
167
171
170
162
154
152
143
130
119
114
113
112
100
96
90
85
82
80
76
71
70
73
75
77
79
79
81
84
78
76
75
77
79
82
82
81
187
188
194
178
185
195
174
180
177
190
202
196
194
173
111
68
30
19
8
3
3
2
4
8
16
21
46
47
20
37
98
135
147
136
142
163
163
141
133
141
164
171
185
183
167
173
177
164
140
134
128
124
115
101
83
72
72
68
62
57
56
58
61
64
58
66
76
88
98
107
113
117
113
111
110
111
113
114
115
114
188
187
188
174
180
195
177
167
182
190
197
199
187
136
68
37
22
14
7
3
2
1
5
10
13
29
59
49
18
43
104
133
158
153
151
161
153
131
135
147
163
165
184
187
173
177
172
141
113
100
90
89
86
70
50
36
42
43
41
42
45
51
58
64
72
82
100
118
134
147
157
161
152
152
152
152
153
154
155
155
195
190
186
174
177
191
177
156
178
187
191
207
193
117
51
36
20
13
7
4
1
1
3
9
20
43
66
50
25
58
120
150
159
170
162
154
135
122
148
164
181
167
171
175
166
164
141
93
83
66
48
43
47
49
47
44
43
45
50
54
59
64
71
75
90
100
115
130
142
152
160
165
169
170
171
172
173
174
174
174
193
187
183
179
180
194
189
165
179
191
192
211
199
116
53
43
18
12
6
4
2
1
2
7
33
52
58
36
23
54
114
154
155
177
161
140
112
108
148
162
180
178
183
171
135
102
72
39
36
35
35
40
56
73
83
84
77
78
80
82
84
86
87
87
97
103
112
123
131
140
147
151
167
170
173
175
175
175
174
175
183
178
177
182
182
193
199
178
191
212
196
200
187
110
45
21
20
11
5
3
4
2
2
6
35
50
44
25
25
51
103
156
158
164
130
115
109
118
161
166
165
169
163
132
79
35
19
20
26
49
72
88
106
127
135
130
122
117
110
105
102
99
96
93
110
114
119
126
133
143
152
157
161
166
172
175
175
173
172
172
181
176
174
182
179
186
195
176
188
219
200
198
197
140
79
44
19
11
4
3
5
4
3
6
28
46
39
30
44
68
114
173
162
146
93
97
123
151
194
188
166
142
100
61
32
12
15
33
66
98
124
135
145
163
171
165
149
138
124
113
107
102
97
94
114
115
116
119
125
135
144
151
157
163
170
174
174
172
171
170
185
179
176
188
181
184
173
201
207
198
221
182
187
102
62
40
21
14
7
4
4
4
5
7
24
35
26
24
42
82
137
157
143
104
96
97
140
182
206
170
144
79
49
25
7
16
35
66
107
151
170
164
172
178
168
163
148
146
141
131
118
109
113
123
122
123
125
125
123
124
128
132
153
157
167
176
175
167
161
162
187
180
181
189
174
172
163
193
204
195
202
178
150
57
31
35
21
12
5
3
3
4
7
10
32
43
29
20
37
82
131
144
122
82
94
129
164
169
174
152
77
27
14
15
33
75
103
124
168
194
199
184
182
173
155
144
143
142
142
141
137
130
128
130
134
135
134
131
129
130
134
138
147
151
156
157
160
163
160
153
189
183
190
198
179
171
164
193
209
197
183
195
139
48
27
43
25
15
6
6
7
9
12
17
39
46
30
29
56
98
127
118
98
92
121
150
168
157
129
83
37
21
34
59
100
154
184
196
208
214
204
191
183
167
141
127
120
116
118
126
133
135
136
137
139
139
137
134
131
132
135
140
143
153
155
150
154
163
157
144
187
179
195
204
190
179
175
195
204
188
156
200
138
61
28
25
22
13
5
7
8
8
13
20
53
44
22
36
74
107
123
107
111
134
166
171
160
135
87
29
12
29
71
111
146
179
200
213
219
208
193
184
176
157
132
117
97
89
84
88
97
108
116
123
131
133
137
137
135
137
140
142
136
147
155
156
159
162
156
144
181
170
192
200
194
186
182
187
202
188
155
199
130
72
36
12
12
4
1
3
3
2
10
21
61
41
20
40
70
86
106
109
130
157
179
168
117
68
29
9
19
51
101
152
182
191
205
217
218
198
179
168
153
133
111
95
80
71
63
59
61
68
81
92
114
120
130
139
142
143
143
146
128
137
149
157
157
152
149
150
184
170
193
193
191
190
190
180
198
188
177
194
118
75
56
28
9
3
1
4
2
3
17
35
45
35
31
58
71
68
89
107
145
175
172
126
52
17
4
4
40
71
104
152
184
184
189
195
195
169
148
131
108
90
75
63
53
51
49
48
45
47
55
65
84
95
113
126
133
135
135
135
138
141
149
154
148
139
140
149
192
176
197
185
184
192
199
181
191
174
189
176
98
57
54
32
11
5
4
7
4
8
32
59
37
32
34
65
83
84
107
123
162
168
126
69
16
13
12
19
98
131
144
173
198
194
193
186
161
136
115
91
61
49
50
43
37
37
42
46
44
41
43
48
53
67
87
103
112
114
114
113
133
142
148
149
145
143
143
145
191
177
198
177
175
190
204
184
203
175
204
172
96
47
46
24
10
5
3
5
3
10
40
75
55
37
22
50
86
113
146
160
159
106
35
18
4
6
8
38
118
163
170
180
193
186
182
168
148
125
103
73
39
33
44
42
46
46
49
51
47
40
35
36
38
52
71
87
96
99
100
100
107
124
138
141
148
158
157
147
188
190
195
191
191
180
198
185
167
195
198
179
108
38
26
12
9
1
1
1
3
20
44
56
46
16
25
71
80
132
158
145
106
49
9
3
9
9
24
71
128
156
179
183
184
180
157
126
97
84
72
61
48
53
70
78
88
93
92
85
77
71
64
59
61
45
48
67
78
79
79
74
110
107
107
120
142
146
144
149
191
195
200
194
191
179
197
185
184
200
195
184
127
63
42
16
8
2
2
4
7
24
48
59
34
26
40
70
96
142
138
88
45
16
4
3
6
13
54
125
164
170
182
191
184
160
128
106
74
50
39
46
63
86
103
105
114
108
103
98
94
88
84
83
71
59
57
60
61
65
66
64
75
85
95
113
136
143
142
148
193
198
205
197
192
179
195
184
179
197
191
173
108
43
29
10
15
7
6
6
9
29
54
61
29
28
48
76
117
131
95
30
14
4
9
9
6
14
64
148
177
178
183
187
179
151
114
90
69
47
49
84
119
138
136
122
100
94
90
90
90
86
81
78
76
70
60
51
48
52
57
60
55
69
78
91
113
133
147
161
194
200
207
200
193
179
195
184
188
204
193
169
102
40
34
22
19
12
8
6
12
35
56
60
29
24
49
86
124
90
45
7
16
6
9
8
6
14
59
133
163
178
184
178
167
151
116
79
63
59
85
131
154
145
116
90
57
65
72
73
74
73
65
55
50
47
43
44
49
46
42
44
51
64
69
77
99
123
144
160
193
197
204
197
193
180
196
185
196
200
181
165
114
61
49
27
16
12
12
14
23
44
56
47
21
24
56
90
110
52
13
5
7
0
1
3
6
19
62
130
162
179
188
180
165
143
107
74
71
78
105
132
126
102
78
63
56
76
84
76
73
78
75
63
46
41
35
46
61
52
41
47
50
64
72
82
102
117
127
137
191
194
197
191
190
180
197
185
181
193
180
164
107
50
39
18
8
9
14
22
37
58
55
33
10
32
65
82
76
32
6
3
5
3
10
7
6
21
66
135
173
175
184
189
171
133
99
82
91
88
90
85
66
60
71
79
102
114
106
83
72
82
89
85
85
75
47
37
46
46
47
66
62
68
75
85
99
108
117
133
190
189
191
186
187
179
195
182
182
200
192
168
101
39
35
25
9
8
11
21
42
68
62
33
16
37
55
63
40
21
5
3
11
10
17
10
7
23
67
136
179
176
179
184
170
134
100
85
82
65
48
38
42
77
118
138
161
145
116
84
65
66
78
88
118
123
91
49
39
38
43
63
72
76
83
95
104
108
123
150
191
188
187
181
185
178
194
179
193
199
178
155
99
47
44
29
16
9
6
14
40
71
70
41
32
35
36
46
18
11
3
7
2
1
4
1
6
28
74
139
181
186
183
173
160
139
106
74
64
45
30
36
75
143
197
216
200
163
119
86
61
51
62
82
135
176
163
111
83
66
54
57
67
78
97
118
126
119
130
160
182
184
175
188
189
187
202
191
179
186
193
152
92
56
28
17
1
12
13
16
48
74
62
36
26
35
36
25
13
9
6
2
2
15
6
4
11
30
78
115
154
166
174
163
143
130
110
84
79
48
35
41
107
185
214
241
215
173
138
87
77
56
51
61
104
140
163
160
142
103
73
71
76
90
97
122
127
120
152
170
169
183
182
194
198
192
192
174
181
174
182
160
119
78
34
13
2
9
13
27
58
73
57
35
25
31
28
16
9
7
6
2
1
13
9
11
19
42
94
132
146
150
157
157
149
144
131
110
79
61
71
107
156
196
212
224
192
150
113
73
62
57
50
49
58
96
144
175
171
135
100
86
75
91
98
123
130
132
162
177
163
186
192
201
205
190
175
159
176
171
179
149
90
42
17
21
11
9
13
38
66
66
47
35
42
43
33
18
8
6
4
2
3
15
10
7
11
36
96
136
162
153
152
154
149
142
129
112
116
114
131
172
196
209
213
189
149
100
65
44
30
44
35
25
34
67
125
164
161
137
115
103
74
90
101
121
135
150
176
187
156
177
191
201
198
172
152
149
166
171
179
133
55
10
5
25
22
11
13
44
68
56
36
36
53
54
45
25
10
6
5
3
3
11
8
6
14
57
135
182
190
175
170
172
164
152
142
131
148
159
162
179
186
201
211
161
106
53
21
20
4
23
17
13
27
59
111
134
119
108
106
97
77
94
107
121
139
161
182
186
137
148
176
197
188
156
136
145
160
167
175
133
72
37
18
16
18
7
15
50
71
51
31
35
48
53
47
29
13
10
10
11
3
8
6
6
14
65
152
199
185
174
177
185
179
170
168
165
167
180
182
183
168
177
196
160
88
33
11
18
4
17
17
23
24
51
92
102
90
89
88
68
79
93
112
124
143
169
181
183
110
114
157
187
177
154
139
144
155
164
173
135
80
49
25
14
3
3
20
56
73
52
31
35
51
55
49
31
17
13
13
11
4
6
7
7
11
60
143
179
183
178
186
195
188
183
186
186
186
192
199
194
157
133
137
132
84
40
25
29
19
26
28
42
47
58
70
71
72
79
75
58
77
89
118
133
154
181
187
194
89
82
133
159
152
154
147
136
146
158
173
134
70
31
16
22
1
7
26
53
66
50
34
37
56
53
43
25
16
15
12
6
4
4
7
12
19
75
160
192
198
197
203
207
201
201
205
203
198
191
197
182
148
115
90
92
83
59
52
39
42
44
43
49
72
71
63
58
61
64
68
78
98
108
139
154
170
190
187
196
73
60
107
126
119
146
146
122
137
146
168
141
79
32
13
25
9
17
30
45
54
45
37
43
48
41
26
12
10
15
13
5
10
6
6
6
10
67
154
183
186
185
192
197
196
204
211
208
212
202
200
176
168
157
115
103
85
75
72
45
59
61
56
52
67
71
66
66
65
53
66
102
137
141
169
177
181
187
174
182
71
55
63
82
98
127
140
116
119
152
188
154
84
79
81
37
27
16
22
40
39
32
32
37
39
32
22
13
7
6
5
5
7
1
5
13
22
59
122
169
176
177
182
191
200
209
216
222
211
208
198
185
171
156
139
124
96
87
76
71
71
70
68
66
74
75
67
71
69
73
106
127
165
177
172
189
170
190
210
191
65
48
56
73
88
116
129
109
119
145
177
156
105
95
93
62
19
15
27
40
39
35
36
37
31
27
20
12
8
6
5
5
4
3
9
15
28
72
134
175
195
195
199
205
208
212
215
217
212
205
191
174
161
153
142
132
108
102
92
82
75
70
67
67
68
78
75
84
95
113
145
156
165
189
176
187
186
199
205
201
68
50
51
64
76
98
108
95
104
146
184
167
107
60
30
6
8
16
34
43
39
38
40
35
24
19
15
11
9
7
5
3
0
5
11
12
28
80
140
171
187
192
199
206
213
218
220
220
213
203
188
172
161
151
140
131
107
102
95
85
76
71
72
74
67
85
89
104
125
150
176
176
169
198
181
184
198
205
198
203
83
64
57
63
69
79
84
75
82
140
174
140
72
18
4
8
5
22
44
46
39
40
41
31
21
17
13
10
8
7
5
2
1
9
13
9
30
93
155
177
186
193
201
207
214
221
223
222
216
210
199
184
172
159
141
126
105
100
91
82
76
75
79
82
84
101
113
135
153
165
183
182
183
197
189
187
199
206
202
201
99
78
66
65
65
66
64
60
50
116
149
109
47
6
2
18
7
29
50
48
37
38
38
26
21
17
12
8
6
6
4
3
3
12
13
9
36
111
175
194
209
213
217
215
216
219
217
213
215
211
203
192
182
167
147
129
116
106
93
85
84
87
90
91
111
125
142
171
179
172
184
190
195
187
195
193
193
206
213
204
104
86
71
69
68
59
52
53
62
115
142
110
58
21
8
11
14
34
52
47
33
33
32
22
21
17
11
8
6
5
4
4
4
9
6
1
31
109
172
188
204
210
213
211
212
216
214
209
204
199
190
181
175
166
150
135
122
112
102
98
103
111
116
117
136
148
164
192
193
175
186
199
192
174
193
188
187
202
215
205
105
90
74
72
72
57
46
51
49
73
89
69
29
4
2
9
20
33
48
44
28
27
27
19
15
13
10
9
8
7
4
3
2
4
1
1
32
109
170
185
188
197
204
204
207
213
211
204
195
190
182
176
173
168
154
140
128
125
123
125
133
141
147
151
159
171
181
197
193
179
191
200
186
178
196
183
193
199
205
208
107
93
76
76
74
58
44
50
47
67
97
97
56
17
9
16
23
32
44
40
25
22
23
18
9
9
9
10
9
8
3
1
1
2
2
8
48
127
189
206
200
209
214
211
210
210
203
192
196
193
188
185
184
178
162
146
147
149
152
155
158
162
168
172
180
194
195
199
193
186
198
200
189
194
206
184
206
204
196
213
106
87
82
81
66
46
34
28
45
69
84
77
45
26
28
9
29
34
35
44
17
18
15
22
11
13
14
13
10
9
6
7
2
12
8
4
57
134
175
202
200
201
205
208
211
211
205
200
206
200
194
190
189
185
177
171
172
163
173
165
171
189
187
201
207
200
199
203
209
209
206
207
190
193
200
207
210
207
202
197
101
82
74
75
63
52
47
45
65
71
38
12
9
9
18
19
28
42
49
56
32
32
23
22
12
13
13
13
10
9
7
7
1
10
9
3
59
151
193
203
203
205
207
211
213
211
206
201
208
202
196
193
192
189
183
178
187
169
172
183
188
185
185
203
202
201
202
204
206
206
206
207
207
200
193
189
188
193
198
201
100
81
73
71
57
46
41
39
53
72
40
22
37
26
13
12
23
47
56
53
33
34
25
20
12
12
12
12
11
9
7
7
3
10
11
2
58
164
208
198
199
201
205
211
217
219
217
212
210
205
199
195
194
193
190
187
192
181
175
193
199
188
192
198
203
206
206
203
200
198
198
198
206
202
197
194
194
196
197
198
91
75
70
67
51
36
28
23
41
61
42
28
31
18
13
14
24
54
61
40
22
24
23
21
12
11
10
9
8
7
6
5
7
6
10
7
60
168
216
204
202
203
207
213
219
222
220
218
212
205
199
195
194
194
193
191
182
191
179
188
196
196
206
191
201
203
203
200
198
197
196
195
192
195
199
204
207
207
204
201
73
61
58
57
44
35
32
28
40
45
35
26
10
7
18
13
31
67
72
38
22
20
23
26
12
10
7
6
6
5
3
2
7
1
5
13
65
163
214
217
216
215
215
217
220
218
214
208
210
205
198
194
193
192
192
192
184
193
179
187
195
197
208
192
199
197
196
200
204
203
200
198
190
189
190
194
200
206
211
213
68
56
51
48
38
35
40
40
51
46
39
37
22
19
27
10
37
72
77
39
31
22
23
24
14
11
7
5
5
4
2
1
7
1
3
15
66
148
192
207
219
218
217
218
220
218
213
209
209
205
199
196
193
194
192
193
197
190
183
196
200
193
198
199
210
200
197
205
208
200
193
194
193
192
191
194
199
206
211
214
72
61
55
49
37
35
40
39
65
62
36
24
20
17
25
22
44
71
70
33
36
25
20
20
18
13
8
5
6
5
2
1
6
5
7
18
75
148
179
196
215
214
214
217
219
219
216
213
208
205
201
198
197
197
197
198
201
190
194
198
200
198
191
201
215
200
196
208
205
187
181
189
197
198
199
202
206
209
209
208
69
60
57
53
41
36
37
34
59
78
51
34
37
20
16
28
53
71
63
26
39
28
24
22
20
15
10
7
8
6
2
1
1
10
13
26
93
167
191
205
219
217
216
217
219
217
213
209
206
204
202
201
200
201
201
202
192
194
207
193
193
209
196
196
204
189
190
206
203
181
179
195
206
203
199
198
200
205
209
211
61
56
47
32
35
44
40
52
88
102
46
19
35
25
22
31
56
74
58
38
30
27
27
16
18
12
7
9
15
20
20
16
7
8
14
32
104
186
216
228
218
222
225
223
222
219
218
217
201
202
197
193
195
204
204
197
194
195
197
198
198
196
194
193
189
191
184
180
183
182
181
186
192
198
201
202
209
215
209
197
70
47
36
32
37
35
33
58
110
112
51
18
25
18
23
42
57
74
58
38
29
25
25
14
16
11
6
8
15
19
17
13
11
11
16
35
107
189
218
230
230
228
225
220
217
214
208
204
203
200
195
191
191
193
193
188
201
198
196
195
196
199
200
200
178
178
169
164
174
181
190
201
207
205
199
194
201
211
209
201
69
48
40
36
38
30
21
42
72
72
34
17
24
16
21
42
58
74
57
38
28
20
21
13
14
9
6
7
12
15
12
9
9
7
13
32
104
182
209
218
221
218
216
216
218
219
214
210
208
201
195
196
194
192
190
190
208
201
192
189
191
195
196
197
174
174
164
161
175
188
200
214
211
211
206
205
210
213
208
196
58
54
47
29
27
31
28
40
49
44
26
24
31
22
22
39
59
71
53
36
26
18
19
13
12
8
6
6
10
10
8
4
10
9
17
41
113
188
212
220
225
222
220
220
217
210
202
200
204
196
194
197
199
195
195
199
205
197
188
184
185
187
184
180
174
176
170
171
185
193
201
209
207
210
212
210
210
212
206
198
48
45
40
20
20
32
42
64
93
70
49
39
33
29
33
48
65
70
47
31
25
17
18
14
10
7
6
7
8
8
6
2
1
3
14
39
107
175
196
205
207
210
217
220
214
204
199
202
193
187
188
193
195
192
193
199
196
191
185
185
186
183
175
167
172
175
171
173
189
197
199
206
208
209
208
202
200
203
208
211
39
30
34
35
35
29
31
63
102
70
59
44
30
34
43
58
75
71
41
26
23
16
16
15
8
7
7
8
9
9
4
1
1
2
10
28
86
146
163
172
187
193
205
213
211
203
204
210
189
187
188
190
190
189
190
192
184
182
182
184
184
180
171
164
168
169
164
168
186
198
205
214
202
205
208
206
204
203
206
208
35
26
32
37
39
27
19
42
65
43
50
38
20
36
54
70
87
74
36
22
21
14
16
13
7
7
8
10
10
9
4
2
10
11
19
35
88
145
166
180
206
205
209
212
205
192
188
193
190
192
193
189
187
189
189
187
174
174
175
174
173
169
162
158
159
159
155
160
180
194
201
210
192
194
199
203
204
199
192
187
37
32
25
12
19
30
29
40
59
37
52
35
12
35
64
85
95
77
35
19
19
13
14
12
7
7
9
11
12
9
5
2
1
2
12
32
90
155
184
206
214
208
207
210
205
194
190
194
186
192
192
186
183
187
187
182
168
168
166
163
160
155
152
150
148
150
147
153
171
183
185
192
189
183
177
178
183
182
177
173
27
28
21
19
30
37
38
44
45
39
34
34
35
49
77
104
103
58
25
19
19
17
15
13
12
12
11
11
11
7
4
1
1
3
7
19
88
157
175
187
195
202
201
198
197
192
188
195
175
184
185
177
177
186
182
170
164
180
178
157
146
154
152
137
133
135
131
141
165
163
150
150
142
134
146
162
163
156
156
155
17
21
21
25
32
32
34
45
59
48
38
35
36
54
85
110
92
51
21
18
16
16
17
14
12
11
11
12
11
8
5
2
16
18
17
25
85
150
167
178
184
192
193
191
189
182
177
182
172
178
179
175
176
180
176
168
166
171
166
152
145
146
141
129
128
128
124
129
146
151
137
124
103
97
109
130
139
144
149
146
21
23
22
26
26
18
24
46
83
69
57
50
46
60
85
98
76
41
17
15
15
17
18
15
12
12
12
12
12
8
4
1
3
4
5
11
64
130
152
160
171
180
181
178
179
173
166
169
174
173
172
175
177
174
170
167
163
156
150
148
143
134
128
126
119
124
128
131
142
154
139
104
73
71
81
93
103
117
129
129
27
24
19
20
16
7
24
60
67
59
61
62
56
70
89
91
61
34
17
15
15
19
21
16
12
12
12
12
12
8
4
1
1
1
3
10
57
124
152
162
163
172
171
166
167
163
159
160
174
164
162
170
171
163
159
162
155
141
139
146
139
121
116
124
120
130
145
148
153
169
151
101
54
57
67
76
83
106
129
135
20
16
13
16
14
9
33
76
72
67
77
80
70
81
93
81
48
29
17
16
16
20
21
15
12
11
11
10
9
7
4
2
9
4
9
12
50
115
146
154
157
163
158
152
154
155
153
155
168
156
152
160
163
152
146
149
143
132
131
138
128
107
105
121
132
144
162
164
167
184
171
128
97
92
95
101
109
124
133
127
16
16
15
20
19
13
31
67
74
63
73
78
72
87
95
70
37
25
19
18
15
21
22
13
13
11
9
7
6
5
3
3
5
0
5
7
38
102
134
141
146
153
147
139
144
147
146
147
162
148
144
153
155
146
140
143
133
125
121
123
111
96
101
120
139
154
168
174
182
199
198
177
168
151
146
153
159
160
146
124
19
20
19
22
21
14
25
51
36
22
34
51
63
94
99
62
26
20
19
18
15
21
23
13
13
10
7
4
3
4
4
3
9
3
11
13
38
100
136
140
134
142
137
130
136
140
138
138
151
140
135
142
147
142
137
138
124
117
109
104
98
99
113
129
144
162
175
183
193
197
198
201
184
169
165
170
163
153
141
128
17
19
16
17
19
17
27
50
49
28
38
59
73
102
97
46
20
18
18
17
14
21
24
11
14
10
5
2
2
3
3
4
13
5
14
11
32
92
126
130
128
136
134
127
134
139
135
134
137
127
123
130
136
134
130
129
118
111
99
90
92
107
127
141
150
171
182
190
193
179
171
185
187
175
167
152
115
87
83
89
24
36
34
24
21
23
30
44
48
52
50
56
85
108
91
54
18
18
10
10
18
17
9
10
12
12
11
11
8
6
5
5
6
7
10
4
15
67
116
122
127
127
117
112
121
127
131
137
125
123
122
127
131
132
125
116
104
92
84
88
101
120
142
159
164
170
179
185
186
180
173
168
172
163
142
110
76
54
48
50
29
32
28
22
13
3
13
40
41
34
34
55
86
98
74
42
18
19
12
11
20
17
10
9
7
7
8
8
7
6
6
7
4
4
6
3
9
52
102
116
110
114
115
120
129
126
116
114
118
118
116
114
112
109
103
100
90
87
90
103
120
138
157
172
182
179
175
172
169
167
163
162
153
133
99
65
40
27
24
26
18
15
16
23
20
13
38
84
92
65
52
72
93
88
62
41
17
18
13
12
23
21
14
14
3
3
5
6
7
7
6
6
5
3
6
3
5
36
83
108
103
104
106
117
126
117
102
99
111
112
113
109
99
90
84
83
82
88
100
117
131
144
156
164
179
173
166
162
158
154
148
143
127
102
66
37
23
19
17
15
31
24
20
25
23
18
43
86
99
73
61
78
89
73
44
27
15
16
12
13
25
26
20
19
3
4
4
6
7
7
6
4
6
4
6
6
5
22
63
100
110
104
96
101
112
106
100
104
107
108
110
109
100
90
82
82
93
100
113
127
136
144
151
156
164
162
160
158
151
138
116
101
78
58
35
20
16
15
9
6
27
27
23
20
20
16
25
46
39
38
53
78
88
71
40
20
12
14
10
12
23
23
15
14
6
5
6
7
8
8
5
2
5
3
3
7
6
12
46
86
109
103
95
98
107
104
100
106
104
99
96
98
99
97
95
96
112
117
123
131
138
148
156
158
157
152
145
136
123
100
74
56
37
28
19
13
12
11
7
5
10
20
22
22
27
27
23
25
17
29
53
76
82
65
42
24
13
13
9
10
19
18
9
8
8
7
7
9
10
9
4
1
2
2
2
4
6
6
28
65
91
98
101
106
115
109
98
96
98
85
78
83
94
100
104
109
126
124
121
118
121
130
135
136
125
114
98
83
69
54
40
30
25
21
17
14
11
10
11
12
20
27
27
25
29
27
20
21
28
35
52
68
65
46
25
15
12
13
9
11
20
19
10
8
8
7
7
8
11
10
5
0
2
4
1
2
8
4
15
44
74
92
103
106
113
110
97
89
88
78
75
87
99
105
109
113
121
113
98
86
86
90
90
86
71
63
49
37
29
25
23
23
15
15
12
8
3
4
5
7
16
18
14
14
22
24
28
40
31
34
55
78
75
44
19
13
11
12
10
13
25
25
17
17
7
6
5
8
11
10
5
0
4
7
2
2
11
4
7
32
69
90
100
98
103
107
99
92
80
76
83
101
113
113
110
113
104
93
75
61
58
61
58
52
34
33
29
24
21
20
18
19
15
15
14
12
9
8
8
9
0
17
26
25
40
63
62
43
37
43
59
77
73
49
27
18
14
6
5
17
24
21
16
15
9
7
8
9
10
11
10
8
4
5
6
5
5
8
11
13
56
87
93
90
111
124
106
90
87
76
88
111
122
120
110
100
85
73
57
46
40
35
29
25
23
20
16
12
12
14
14
13
15
11
8
8
8
7
10
14
14
14
17
34
70
92
71
32
33
48
69
77
63
39
23
20
15
7
6
15
20
16
10
8
2
1
1
1
3
3
3
1
4
5
4
5
4
6
8
11
32
80
106
107
112
111
99
91
72
70
89
115
122
114
99
86
63
55
43
34
29
25
21
17
18
17
14
12
13
14
14
14
11
10
10
10
6
5
11
20
15
13
13
24
43
55
44
25
38
66
89
80
52
28
21
21
14
8
7
15
20
15
8
6
4
3
2
3
4
5
4
3
4
4
5
4
3
4
5
7
17
63
94
97
97
99
100
102
86
86
103
117
108
89
70
54
37
32
26
20
15
14
11
9
12
12
11
12
11
12
11
11
10
10
10
7
4
8
26
44
15
18
19
17
11
9
17
26
54
87
105
82
45
25
21
21
11
7
9
17
22
19
16
13
9
8
8
8
10
10
10
9
5
6
6
5
4
3
4
5
11
42
70
82
92
103
110
112
111
106
110
104
80
54
37
27
19
18
16
12
10
7
6
6
14
13
13
15
13
10
9
10
12
9
8
8
11
27
53
75
25
22
22
25
23
20
26
34
67
94
102
72
38
24
21
17
10
8
11
18
23
22
19
16
8
7
6
7
8
9
8
7
7
8
8
7
6
4
5
4
5
27
59
83
97
109
114
112
111
106
103
88
57
32
22
16
11
10
10
8
7
6
6
5
14
12
13
14
11
6
6
10
11
8
10
20
34
54
76
94
28
22
17
17
18
22
35
48
74
88
85
56
30
23
19
12
11
11
13
18
21
19
15
11
7
5
5
5
7
7
7
6
8
10
10
9
7
6
6
5
5
18
50
73
80
91
108
114
105
103
101
85
52
28
18
10
7
6
5
6
7
9
7
6
9
5
5
8
5
3
4
10
15
14
24
42
63
78
86
92
25
27
25
19
16
25
46
66
85
87
73
45
25
20
16
9
11
13
16
18
19
17
12
7
9
8
6
7
8
9
8
7
8
9
10
10
8
6
6
5
7
9
34
56
62
76
97
105
102
103
103
85
50
26
14
5
5
2
2
4
9
12
12
9
8
4
5
7
7
6
13
24
33
35
46
64
81
87
88
88
28
35
43
49
55
64
74
80
97
91
72
43
24
19
14
8
11
14
17
19
20
18
14
8
8
7
6
7
8
9
8
7
6
8
10
10
8
6
6
5
3
3
24
58
69
80
89
85
96
95
95
77
44
21
11
3
6
2
1
4
12
17
16
12
16
11
12
18
19
20
32
46
56
55
62
75
85
89
88
89
18
38
67
81
73
66
63
60
92
75
51
32
23
20
13
7
9
10
13
17
19
17
13
9
7
6
6
8
9
8
4
1
3
4
4
3
2
2
4
5
2
4
24
68
109
115
103
101
82
93
97
82
53
28
12
3
2
6
6
6
16
35
46
48
44
46
48
49
52
57
66
73
89
91
93
93
92
93
94
96
18
27
61
100
100
68
55
68
93
75
48
27
16
14
15
16
17
19
21
22
20
15
11
8
8
7
7
9
11
10
6
2
3
4
4
3
3
3
4
5
7
3
11
46
92
108
102
100
114
105
95
87
68
43
24
17
2
5
8
13
28
50
72
84
95
95
93
91
93
102
116
127
138
137
137
133
129
123
120
119
18
21
40
79
94
68
62
93
90
72
47
24
12
10
14
18
22
24
26
24
19
12
9
7
9
8
8
11
13
13
10
6
4
4
3
3
3
3
4
4
11
3
3
28
79
114
121
121
115
102
97
97
83
50
23
13
10
9
11
17
28
48
76
97
106
111
114
117
123
133
149
162
166
168
166
163
158
154
150
148
12
26
26
37
63
69
71
95
85
67
43
26
16
12
11
11
17
21
24
21
15
10
8
9
8
7
8
10
13
14
12
9
4
3
3
3
4
4
3
3
7
2
2
15
64
104
121
127
125
121
122
124
113
85
58
42
24
21
19
23
29
41
67
91
104
117
132
143
149
155
162
168
181
183
182
182
179
178
179
180
9
31
27
28
57
72
69
77
85
63
37
24
19
14
10
7
13
18
19
17
12
8
8
10
7
6
6
9
12
14
12
10
4
3
2
4
5
5
3
1
3
2
1
4
35
66
84
97
105
104
100
96
97
94
77
58
43
38
37
42
49
60
82
103
117
129
145
158
162
159
157
156
178
179
177
176
175
178
183
186
17
23
21
35
65
77
76
84
86
59
30
19
18
15
11
11
15
16
16
14
10
8
8
9
7
5
5
7
11
13
12
10
4
2
2
4
6
6
3
0
2
5
2
3
17
33
55
77
99
101
99
100
117
128
112
84
70
66
64
71
80
94
109
121
129
136
145
153
157
157
153
151
159
160
159
160
161
167
173
177
24
14
15
36
63
78
83
87
76
53
30
22
21
16
13
14
13
12
11
10
9
9
8
8
8
6
5
7
11
13
12
10
4
2
2
4
7
7
3
1
3
6
4
4
9
19
43
74
91
99
106
115
125
129
120
104
99
94
90
93
108
125
133
135
153
152
152
157
163
167
165
161
156
157
156
158
157
160
163
166
21
15
21
38
59
76
76
60
64
47
33
30
27
19
13
14
8
7
6
6
8
9
9
9
9
7
6
8
11
13
12
10
4
2
2
4
7
7
3
1
3
5
1
1
2
5
29
66
88
97
108
111
104
100
109
120
114
110
104
107
125
148
155
149
172
166
161
161
166
167
162
156
154
154
153
149
143
138
136
133
40
19
21
42
51
50
56
62
55
43
35
34
29
20
16
19
14
12
8
6
8
12
14
14
5
11
12
5
4
8
10
6
2
2
3
3
4
4
5
5
4
4
4
4
2
3
20
42
98
99
102
102
97
97
104
114
116
123
126
122
139
152
149
167
181
173
164
163
167
171
169
165
150
150
151
150
144
137
128
124
18
11
24
47
53
52
55
58
51
41
34
33
27
17
13
17
12
13
13
12
11
9
7
6
1
4
7
7
8
10
9
6
2
3
3
3
4
4
4
5
5
3
3
4
1
2
14
31
69
83
101
110
112
112
115
119
111
118
122
125
150
167
161
174
170
169
166
166
166
166
165
165
151
151
152
151
146
141
135
130
27
29
43
52
48
50
58
60
48
40
34
31
24
13
10
12
10
12
13
12
9
7
8
10
10
6
4
7
10
9
9
10
3
3
3
3
4
4
4
4
6
2
2
3
1
1
6
17
39
65
92
107
111
114
116
115
115
120
124
127
154
171
158
164
157
162
167
167
162
159
160
162
151
152
151
149
147
144
140
138
32
42
56
56
47
50
55
51
47
40
34
29
21
11
6
7
10
8
7
5
4
7
16
28
32
17
6
6
7
6
8
14
3
3
3
3
4
4
4
4
5
2
1
3
2
1
2
6
33
59
84
93
97
105
110
109
115
121
121
120
144
159
145
150
148
156
162
162
158
155
156
159
156
155
152
150
147
145
144
143
43
65
92
100
92
90
85
71
49
42
33
27
20
12
6
4
9
6
4
4
4
9
21
36
37
22
10
8
7
5
6
11
4
4
4
4
3
3
3
3
4
0
1
3
5
4
3
3
19
38
59
66
72
80
90
94
99
111
115
109
130
147
139
147
147
151
155
156
156
154
155
156
158
155
151
147
143
142
142
142
35
58
87
93
80
77
74
64
50
40
29
22
19
15
8
4
8
5
6
11
11
10
14
24
20
15
10
10
10
7
4
4
4
4
4
4
3
3
3
3
2
2
1
3
5
6
4
5
6
20
38
53
60
68
76
84
91
105
110
102
119
136
132
145
147
148
151
153
154
154
154
154
150
148
142
137
134
131
130
131
42
63
86
84
64
58
63
63
48
36
21
17
19
19
13
5
9
5
8
15
15
8
6
10
4
7
9
8
8
9
7
3
5
4
4
4
3
3
3
2
2
2
1
2
2
4
6
6
12
18
33
53
64
67
75
85
88
103
108
98
114
131
126
136
144
148
153
155
155
153
153
153
146
142
137
131
127
125
124
124
28
54
85
87
61
47
51
54
45
31
16
13
18
22
16
7
12
5
6
13
13
5
2
4
1
7
8
3
2
8
11
7
5
5
4
4
3
3
2
2
2
3
2
1
0
2
6
6
7
5
15
33
43
43
51
65
80
95
102
95
114
133
127
135
143
148
156
158
156
153
153
154
150
147
141
136
132
131
131
130
34
54
84
81
47
34
43
43
38
29
19
16
19
20
16
10
1
3
9
9
4
8
11
4
4
4
4
5
5
6
6
6
5
5
4
4
3
3
2
2
3
2
1
2
2
1
1
1
5
2
7
17
22
26
41
58
89
105
111
111
120
130
133
140
135
143
154
158
157
153
152
153
150
144
144
156
135
144
143
141
38
55
78
83
65
50
50
51
36
28
18
16
18
19
15
10
4
5
11
10
4
7
10
3
3
3
3
4
4
5
5
5
5
4
4
4
3
3
3
2
3
3
2
2
2
2
1
1
2
1
4
12
16
20
33
47
60
75
85
97
119
133
138
142
148
148
147
149
150
153
156
158
151
149
149
155
146
148
144
142
43
57
71
79
77
61
49
51
37
29
21
17
18
18
14
9
9
8
13
12
5
7
9
3
3
3
3
4
4
4
4
4
4
4
4
4
3
3
3
3
3
3
3
2
2
2
2
2
1
1
2
6
8
11
21
33
35
47
60
82
110
124
125
127
150
149
149
152
157
162
163
162
154
156
157
152
161
153
146
141
45
64
68
66
71
60
43
40
36
30
23
19
18
17
14
11
10
8
13
13
7
8
11
6
5
5
5
5
5
5
5
5
4
4
4
4
3
3
3
3
3
3
3
3
2
2
2
2
0
1
1
3
4
5
11
20
25
35
49
71
98
109
112
118
134
142
152
163
170
170
166
163
157
163
164
152
172
158
149
141
42
66
66
52
56
55
41
34
26
23
20
18
17
17
17
16
10
6
11
14
8
9
13
10
7
7
7
7
7
7
6
6
3
3
3
3
4
4
4
4
4
4
3
3
3
3
2
2
2
1
2
2
3
4
8
13
19
30
45
65
88
99
109
126
130
138
152
162
165
165
166
167
161
171
172
156
175
164
153
143
44
64
66
51
47
50
45
38
16
15
15
15
16
17
19
20
9
4
9
13
9
9
14
13
8
8
8
8
8
7
7
7
3
3
3
3
4
4
4
4
4
4
4
3
3
3
3
3
3
3
2
3
3
4
7
10
14
24
37
56
73
81
98
125
143
147
154
157
157
162
170
177
169
180
181
167
175
172
163
148
65
65
69
63
49
42
41
36
17
17
17
16
15
16
17
19
10
4
8
13
8
8
13
14
8
8
8
8
7
7
7
6
2
3
3
3
4
4
4
5
4
4
4
4
3
3
3
3
2
3
3
2
2
4
6
6
12
18
27
44
60
66
86
116
142
148
154
159
163
166
170
172
181
191
191
184
172
181
175
157
86
70
73
75
51
33
30
28
24
24
24
21
17
14
15
16
11
4
8
13
8
7
12
13
8
8
7
7
6
6
6
5
2
2
3
3
4
4
5
5
4
4
4
4
2
3
3
3
0
1
2
2
1
5
6
5
8
12
22
41
59
67
88
120
124
135
150
165
173
170
162
154
189
197
197
195
170
189
183
165
69
84
83
60
41
39
34
26
22
22
21
20
18
15
13
12
5
4
5
10
13
11
9
10
6
6
5
4
7
10
9
5
3
3
3
3
3
3
3
3
3
2
2
2
1
1
1
1
2
2
2
1
1
1
1
2
4
6
9
25
45
59
77
102
113
137
151
145
166
163
165
169
186
196
200
193
188
190
188
182
97
98
84
56
37
34
33
29
22
22
21
19
17
14
11
9
3
2
2
7
9
7
5
6
5
5
4
3
6
10
9
5
3
3
3
3
3
3
3
3
3
3
2
2
2
1
1
1
2
2
2
2
1
1
1
2
8
8
5
11
25
33
49
74
87
110
125
124
154
159
167
173
177
190
198
194
191
193
193
190
80
76
65
51
41
36
31
26
23
22
20
18
15
11
9
7
3
2
1
6
7
5
3
4
5
5
4
3
6
10
9
5
3
3
3
3
3
3
3
3
3
3
3
2
2
1
1
2
2
2
2
2
1
1
1
1
6
6
4
5
11
19
34
58
94
111
122
120
152
160
172
180
171
186
197
196
193
194
195
194
49
42
37
38
40
37
31
28
27
24
20
15
12
10
9
10
7
4
4
7
8
6
4
5
7
7
5
3
6
11
10
7
3
3
3
3
3
3
3
3
3
3
3
3
2
2
1
1
2
3
3
3
2
2
2
2
4
6
4
4
8
13
26
47
80
99
113
114
145
154
168
182
167
180
192
191
187
185
186
185
51
39
27
27
31
32
33
35
30
26
19
14
11
10
12
14
10
6
5
8
9
7
5
6
10
9
6
4
7
11
11
7
4
4
4
4
4
4
4
4
4
4
3
3
3
3
2
2
2
3
2
2
2
2
2
3
4
9
5
2
4
4
10
24
41
69
99
112
150
157
171
186
165
175
183
182
177
176
175
175
56
47
37
34
34
33
32
31
28
24
18
14
11
11
13
15
9
6
5
7
8
6
5
7
11
10
7
4
6
10
10
6
4
4
4
4
4
4
4
4
4
4
4
3
3
3
2
2
2
2
2
2
2
2
2
3
2
7
3
1
5
4
4
13
24
56
92
113
150
153
160
170
166
171
175
175
171
169
170
170
59
58
52
43
37
34
31
29
22
20
17
15
13
13
13
13
9
6
4
7
8
7
6
8
12
10
6
2
3
7
7
3
4
4
4
4
4
4
4
4
4
4
4
4
3
3
3
3
4
3
3
3
3
4
4
4
2
7
3
3
9
11
10
16
17
37
62
79
120
125
132
141
161
160
160
159
157
155
154
155
83
79
62
40
28
29
35
38
16
16
17
17
16
14
11
10
11
7
5
8
10
8
8
10
11
10
5
1
2
5
4
2
4
4
4
4
4
4
4
4
4
4
4
4
3
3
3
3
4
3
3
3
3
3
4
3
6
10
3
2
10
12
9
13
9
18
30
45
97
114
133
148
150
145
140
138
136
134
133
132
